HIERARCHY
ROOT Hips
{
  OFFSET 1.98453 109.516 -51.4922
  CHANNELS 6 Xposition Yposition Zposition Zrotation Xrotation Yrotation
  JOINT RightUpLeg
  {
    OFFSET -8.9458 -8.66707 0.101652
    CHANNELS 3 Zrotation Xrotation Yrotation
    JOINT RightLeg
    {
      OFFSET 0 -44.4227 1.3727
      CHANNELS 3 Zrotation Xrotation Yrotation
      JOINT RightFoot
      {
        OFFSET 0.558402 -42.72 1.56801
        CHANNELS 3 Zrotation Xrotation Yrotation
        JOINT RightToes
        {
          OFFSET 0.04 -4.41509 8.4991
          CHANNELS 3 Zrotation Xrotation Yrotation
          End Site
          {
            OFFSET -0.08 -0.137448 9.77979
          }
        }
      }
    }
  }
  JOINT Spine
  {
    OFFSET 0 11.8905 0
    CHANNELS 3 Zrotation Xrotation Yrotation
    JOINT Spine1
    {
      OFFSET 0 25.6574 0.127663
      CHANNELS 3 Zrotation Xrotation Yrotation
      JOINT HEad
      {
        OFFSET 0 8.73416 0.011341
        CHANNELS 3 Zrotation Xrotation Yrotation
        End Site
        {
          OFFSET -0.29 12.7742 2.51395
        }
      }
      JOINT LeftShoulder1
      {
        OFFSET 8.99 -0.362252 -0.22
        CHANNELS 3 Zrotation Xrotation Yrotation
        JOINT LeftArm
        {
          OFFSET 10.2827 -0.00338 0.322123
          CHANNELS 3 Zrotation Xrotation Yrotation
          JOINT LeftForeArm
          {
            OFFSET 32.7669 0.099144 -1.42434
            CHANNELS 3 Zrotation Xrotation Yrotation
            JOINT LeftHand
            {
              OFFSET 27.5643 0.085362 1.02216
              CHANNELS 3 Zrotation Xrotation Yrotation
              End Site
              {
                OFFSET 16.7443 -0.6 1.50291
              }
            }
          }
        }
      }
      JOINT RightShoulder
      {
        OFFSET -8.99 -0.362252 -0.22
        CHANNELS 3 Zrotation Xrotation Yrotation
        JOINT RightArm
        {
          OFFSET -10.2827 -0.00338 0.322123
          CHANNELS 3 Zrotation Xrotation Yrotation
          JOINT RightForeArm
          {
            OFFSET -32.8971 0.099144 -1.42434
            CHANNELS 3 Zrotation Xrotation Yrotation
            JOINT RightHand
            {
              OFFSET -27.4921 0.085362 1.02216
              CHANNELS 3 Zrotation Xrotation Yrotation
              End Site
              {
                OFFSET -16.6312 -0.6 1.50291
              }
            }
          }
        }
      }
    }
  }
  JOINT LeftUpLeg
  {
    OFFSET 8.9458 -8.66707 0.101652
    CHANNELS 3 Zrotation Xrotation Yrotation
    JOINT LeftLeg
    {
      OFFSET 0 -44.4227 1.3727
      CHANNELS 3 Zrotation Xrotation Yrotation
      JOINT LeftFoot
      {
        OFFSET -0.253549 -42.0924 -1.46059
        CHANNELS 3 Zrotation Xrotation Yrotation
        JOINT LeftToes
        {
          OFFSET -0.04 -4.41509 8.4991
          CHANNELS 3 Zrotation Xrotation Yrotation
          End Site
          {
            OFFSET 0.08 -0.047448 9.77979
          }
        }
      }
    }
  }
}
MOTION
Frames:	21
Frame Time:	0.0166667
4.38462 102.785 -43.2874 16.0283 15.2482 162.569 12.2122 25.7308 -10.1763 21.2467 31.4869 -28.1912 -30.6567 2.74404 -1.61041 0.0462048 0.000533403 0.662642 3.20573 11.2624 -4.18917 4.13465e-006 -2.25503e-009 -0.0171924 9.31947 -1.10455 -25.974 -7.95139e-016 -1.59028e-015 -0 -140.564 -41.3421 -105.192 -123.524 30.5897 4.14748 27.2557 22.0406 -26.2236 15.0535 8.64654 -0.893453 130.633 -33.8074 103.817 51.7392 50.0762 34.5494 14.9413 28.9858 4.39509 16.3875 -9.16004 -24.3539 -37.6891 12.3356 75.857 20.5687 -2.96984 1.4612 4.17969e-010 1.55999e-007 -4.85535e-009 
4.6362 103.944 -43.3695 19.1517 18.9067 167.431 14.4952 22.7025 -16.5092 24.4208 37.8721 -21.3519 -28.0446 1.94225 -2.15439 0.0462048 0.000533403 0.662642 5.60054 14.7954 -7.86647 0.0146348 0.0402738 0.0015104 11.4994 4.33686 -25.806 -3.57812e-015 -1.59028e-015 -0 -138.308 -40.9025 -100.638 -124.34 31.9413 4.24502 27.3418 22.2235 -25.887 18.214 8.20684 -3.25841 128.146 -36.5568 103.42 51.1101 49.9433 35.9947 17.3644 28.8628 -23.9011 17.6352 -6.2951 -30.6954 -37.2093 11.5148 75.3504 23.3439 -3.04615 1.62467 4.17969e-010 1.55999e-007 -4.85535e-009 
4.63093 105.181 -43.9942 22.1465 22.138 171.142 14.5642 18.7714 -21.9201 27.856 43.9838 -16.5801 -28.9668 0.75906 -2.79884 0.0462048 0.000533403 0.662642 7.95271 17.5164 -10.8375 0.0565116 0.143876 0.0546806 14.0733 10.9664 -25.4462 9.93923e-016 7.95139e-016 3.18055e-015 -135.597 -40.3923 -96.1454 -124.958 32.8113 4.40727 27.582 22.1736 -25.8183 21.6809 8.03186 -6.0896 125.559 -39.0404 103.261 47.7348 48.9895 36.0895 18.2378 29.0238 -1.39002 19.5026 -3.56649 -36.3048 -37.0152 10.638 75.416 25.7482 -3.83181 1.97975 4.17968e-010 1.55999e-007 -4.85535e-009 
4.35361 106.527 -45.2393 25.5144 24.2517 173.115 11.4416 14.2522 -26.1742 32.7545 50.4833 -14.7121 -28.7286 -1.64107 -3.25928 0.0462048 0.000533403 0.662642 10.189 19.6077 -13.1862 0.122613 0.306073 0.138922 16.9469 17.1439 -25.5738 9.93923e-016 7.95139e-016 1.59028e-015 -132.573 -39.9856 -91.5271 -121.003 30.1944 2.85392 24.6165 25.2519 -27.7928 25.4164 8.02125 -8.9499 123.012 -41.5523 103.545 46.0414 48.4221 36.7067 17.026 29.1722 -10.6443 22.0519 -1.29865 -41.2702 -36.7689 9.76802 76.3767 27.3646 -5.02278 2.78092 4.17969e-010 1.55999e-007 -4.85535e-009 
3.79732 107.766 -46.9799 29.5048 25.581 173.599 6.67428 9.51991 -30.3148 39.1808 56.8306 -15.8762 -29.7129 -3.78149 -3.40001 0.0462048 0.000533403 0.662642 12.2969 21.2299 -15.0018 0.214086 0.518462 0.250192 20.1297 22.8169 -26.1321 1.39149e-015 0 4.77083e-015 -129.127 -39.5339 -86.6926 -119.511 29.1219 2.50682 23.3348 26.8324 -28.7938 29.3457 8.12621 -11.8866 120.514 -44.0594 104.171 45.3257 48.1738 37.8329 17.3772 29.3174 1.02544 25.2136 0.709689 -45.7185 -36.6882 9.09893 78.2096 28.2221 -6.63417 3.96741 4.17965e-010 1.55999e-007 -4.85536e-009 
2.98642 108.798 -49.097 34.2124 26.415 172.921 0.80146 4.63737 -34.6416 47.9788 62.7676 -20.8122 -30.1941 -5.37616 -3.44429 0.0462048 0.000533403 0.662642 14.312 22.5123 -16.3739 0.324965 0.774366 0.383687 23.586 27.9358 -27.0899 -1.39149e-015 1.59028e-015 -3.18055e-015 -125.256 -38.8805 -81.665 -119.278 29.0633 2.6237 33.4562 17.5821 -18.6251 33.3899 8.28452 -14.7315 118.163 -46.6658 105.225 44.8186 48.0318 39.142 16.7319 29.4297 -5.52639 29.1266 2.67773 -49.7259 -36.6767 7.89783 82.4273 28.7657 -8.20962 5.4013 4.17971e-010 1.55999e-007 -4.85536e-009 
1.98453 109.516 -51.4922 39.5985 26.9964 171.443 -5.55702 -0.431296 -39.2495 60.2055 67.9045 -30.5782 -30.3295 -6.16899 -3.67182 0.0462048 0.000533403 0.662642 16.7794 24.6412 -17.5403 0.457861 1.15894 0.534896 26.8329 31.2979 -27.8361 -2.5842e-015 -2.78299e-015 -0 -121.944 -37.1744 -77.7982 -119.535 29.6597 2.80933 28.097 22.866 -22.5643 37.1104 7.4381 -16.9996 115.996 -49.0841 106.54 41.5091 47.4933 38.6816 16.3314 30.0108 5.9992 33.7637 4.69341 -53.2761 -36.7296 6.77038 88.2759 28.5082 -9.52063 6.83346 4.17968e-010 1.55999e-007 -4.85535e-009 
0.874666 109.924 -54.0605 45.5079 27.5229 169.523 -12.2498 -5.71737 -43.8174 76.6566 71.5472 -46.0094 -29.1527 -6.18949 -4.33928 0.0462048 0.000533403 0.662642 19.8747 27.3917 -18.7299 0.600174 1.47126 0.701099 29.5439 33.3846 -28.2567 8.29926e-015 6.95746e-016 -0 -115.024 -34.3299 -70.0088 -114.015 31.8369 -0.395569 28.1743 21.3064 -23.9971 40.3011 6.03975 -18.5697 114.092 -51.4001 108.172 39.602 47.2226 39.4621 15.9052 29.7092 -13.2286 38.6953 6.99373 -56.2999 -36.4347 6.70256 93.3041 27.127 -10.6832 7.98497 4.17968e-010 1.55999e-007 -4.85535e-009 
-0.258926 110.039 -56.7044 51.6866 28.1693 167.477 -19.4395 -11.1386 -47.9219 96.1139 73.0001 -65.7659 -26.4 -5.66456 -5.57212 0.0462048 0.000533403 0.662642 23.5953 30.5755 -20.1206 0.746283 1.80019 0.877795 31.5151 34.3876 -28.2011 4.47266e-015 3.97569e-016 3.18055e-015 -110.77 -30.65 -65.8532 -110.484 33.3615 -3.50749 23.2686 25.2544 -27.5485 42.7791 4.23295 -19.3309 112.523 -53.6674 110.044 38.387 46.9692 40.991 15.5447 30.1259 6.79061 43.5636 9.58348 -58.7701 -35.5579 7.77222 97.4375 24.8526 -11.5626 8.67724 4.17974e-010 1.55999e-007 -4.85536e-009 
-1.30774 109.861 -59.3682 57.8399 29.1262 165.557 -27.7226 -16.3536 -51.2073 113.758 71.9017 -84.6348 -21.9274 -4.77411 -7.1961 0.0462048 0.000533403 0.662642 27.8906 34.0467 -21.8818 0.89653 2.14536 1.06097 32.6665 34.5291 -27.6108 1.98785e-016 3.97569e-016 -6.36111e-015 -108.353 -26.6467 -64.1659 -107.785 34.566 -6.38916 24.324 24.0389 -26.8447 44.511 2.1969 -19.1417 111.39 -55.9659 112.246 37.281 46.4082 42.5929 15.3603 29.8122 -5.48027 48.0533 12.4802 -60.7909 -33.7944 9.9131 100.544 21.9365 -11.8558 8.9059 4.17976e-010 1.55999e-007 -4.85536e-009 
-2.24417 109.484 -61.9182 63.6571 30.61 163.939 -36.0456 -21.7097 -54.5232 125.374 68.7596 -98.7804 -27.0858 -7.32163 -11.4517 0.0462048 0.000533403 0.662642 31.6483 36.6979 -23.3988 1.01623 2.40047 1.24862 33.9706 35.0422 -27.4534 1.76556e-031 -3.18055e-015 3.18055e-015 -106.221 -22.87 -62.7365 -105.565 35.664 -8.98285 21.6612 26.1037 -27.9764 45.8105 0.899377 -19.1157 110.719 -58.1379 114.646 36.2777 45.5638 44.2838 15.0401 30.0369 6.31038 51.4438 15.3968 -61.2384 -30.6342 14.185 101.766 18.5127 -11.17 8.65617 4.17963e-010 1.55999e-007 -4.85535e-009 
-2.96843 109.099 -64.2321 68.8698 32.8949 162.713 -48.5199 -24.4743 -56.4254 126.234 65.3331 -102.496 -17.9225 -4.92406 -12.6245 0.0462048 0.000533403 0.662642 34.681 38.6625 -24.585 1.16698 2.75607 1.4335 35.2768 35.6971 -27.5324 -7.35503e-015 7.95139e-016 -3.18055e-015 -104.471 -19.2652 -61.6083 -103.378 36.6595 -11.4655 22.6379 25.1672 -27.2648 46.5966 0.0625044 -19.042 110.488 -60.1415 117.257 35.1412 44.2982 45.7222 14.8374 29.7626 -0.955432 52.8294 18.9634 -60.1494 -24.0706 20.951 100.294 14.4661 -8.47489 8.19281 4.17969e-010 1.55999e-007 -4.85535e-009 
-3.49657 108.8 -66.263 73.3043 36.3199 161.876 -61.8826 -24.7148 -57.6749 123.368 61.4303 -102.471 -14.0752 -3.50062 -13.1359 0.0462048 0.000533403 0.662642 36.8884 40.0719 -25.3844 1.31534 3.10578 1.61354 35.416 35.48 -27.5184 -6.85807e-015 -1.19271e-015 3.18055e-015 -102.983 -15.9114 -60.552 -101.226 37.5866 -13.8505 21.0586 26.1735 -27.5479 47.0123 -0.30406 -19.0791 110.635 -61.7826 120.06 33.9561 42.7834 47.059 14.6552 30.1985 6.26364 53.7525 24.5574 -59.7163 -13.5384 25.4758 95.5028 11.6194 -4.08612 8.49426 4.17973e-010 1.55999e-007 -4.85536e-009 
-3.80759 108.608 -67.9413 77.204 40.7904 161.198 -74.2034 -20.9209 -57.0158 112.325 57.286 -94.6506 -6.99576 1.82075 -12.034 0.0462048 0.000533403 0.662642 38.2558 41.0316 -25.7777 1.45767 3.44159 1.78514 34.5892 34.5326 -27.4734 -1.88845e-015 0 3.18055e-015 -101.709 -12.8564 -59.4789 -98.9831 38.3889 -16.2174 21.7025 25.3637 -26.7692 47.272 -0.238971 -19.1946 111.121 -63.0299 123.127 32.6016 41.0591 48.1574 14.4925 29.8464 1.92304 57.0613 30.5917 -61.493 -4.33162 25.0182 89.9728 10.8083 -0.573562 9.34328 4.17969e-010 1.55999e-007 -4.85536e-009 
-3.78245 108.622 -69.5056 81.1018 45.8277 160.314 -81.0247 -15.9466 -54.4835 95.4451 51.5641 -82.9024 -2.27544 6.54996 -10.5522 0.0462048 0.000533403 0.662642 38.8067 41.5723 -25.8032 1.59112 3.75667 1.9448 33.0523 33.041 -27.4137 9.0447e-015 -1.19271e-015 1.59028e-015 -100.655 -10.0876 -58.4145 -96.6719 39.0056 -18.6217 20.6982 25.8063 -27.0142 47.5566 -0.0908307 -19.5264 108.756 -61.1835 125.798 29.5588 37.4111 47.4446 14.2421 30.3458 6.87026 62.712 35.7005 -65.1664 2.21045 22.4468 85.3838 10.5748 1.72772 10.0763 4.17969e-010 1.55999e-007 -4.85536e-009 
-3.30463 108.784 -71.0505 85.3668 51.198 158.912 -82.5609 -12.0395 -49.7244 77.4893 43.3756 -72.3929 4.43803 9.98401 -9.86576 0.0462048 0.000533403 0.662642 38.5703 41.6981 -25.5123 1.7128 4.04419 2.08906 31.0311 31.1853 -27.3844 9.44227e-015 7.95139e-016 7.95139e-016 -102.817 -5.12843 -59.2542 -89.2424 39.3513 -25.6604 17.3701 25.2872 -20.9639 40.527 -2.98858 -12.3666 108.075 -67.2993 124.113 26.1771 33.6659 45.5866 13.9353 29.8252 4.87571 71.1877 38.986 -70.1333 5.88671 18.966 81.1986 10.0387 2.59266 10.4791 4.17963e-010 1.55999e-007 -4.85535e-009 
-2.33792 108.78 -72.7047 90.3736 56.5962 156.613 -80.334 -10.1368 -43.0653 60.8317 33.8843 -64.2655 13.9411 11.4044 -11.2837 0.0462048 0.000533403 0.662642 37.7017 41.4807 -24.9614 1.8198 4.29866 2.21448 28.6245 28.963 -27.4444 3.8763e-015 -1.59028e-015 9.93923e-016 -103.654 -1.92593 -58.6691 -84.5295 39.7048 -29.9551 14.8945 25.3937 -17.4336 42.1649 -1.95425 -14.1904 106.735 -61.9133 129.489 22.4588 30.4356 42.6177 14.4398 30.1716 7.15653 81.4971 39.5896 -75.7677 6.52697 15.5379 77.5823 8.90511 1.90116 10.4153 4.17969e-010 1.55999e-007 -4.85535e-009 
-0.814781 108.809 -74.9224 96.3028 61.6679 153.114 -76.325 -9.55916 -35.284 45.8511 25.8194 -59.5349 26.6457 11.1121 -14.1171 0.0462048 0.000533403 0.662642 36.2476 41.0027 -24.1469 1.90918 4.51273 2.31906 25.8683 26.3564 -27.665 1.66482e-015 3.18055e-015 1.88845e-015 -103.579 -0.0384676 -57.1535 -81.4765 39.9745 -32.6819 14.4256 24.788 -15.4481 43.8839 -0.521536 -15.8244 106.317 -59.2743 133.215 19.9066 28.3675 41.6604 14.6368 29.6094 5.63731 92.9559 38.275 -82.377 5.7341 10.4661 75.1139 8.26588 0.911499 9.90663 4.17976e-010 1.55999e-007 -4.85536e-009 
0.688328 108.397 -76.9619 103.029 66.0483 148.35 -69.9358 -10.4445 -26.4009 29.7616 21.19 -58.7627 39.9192 10.096 -17.2888 0.0462048 0.000533403 0.662642 34.2632 40.3199 -23.0473 1.97806 4.67861 2.39788 23.7244 24.5008 -28.0986 -4.77083e-015 -3.18055e-015 5.1684e-015 -102.754 0.816386 -54.9671 -79.454 40.1065 -34.4926 13.863 25.0602 -13.9225 45.954 1.38914 -17.4577 106.674 -58.151 136.093 18.2131 27.0066 41.8102 15.4681 29.8446 6.28747 102.333 35.5193 -87.4183 4.27595 5.97697 73.1081 7.5486 -0.123631 9.15024 4.17969e-010 1.55999e-007 -4.85536e-009 
2.0287 107.699 -78.4801 109.769 69.4245 142.858 -61.9614 -13.5445 -16.9788 14.6307 22.1239 -60.3665 45.362 8.55803 -19.4656 0.0462048 0.000533403 0.662642 31.8504 39.4772 -21.6435 2.02504 4.78863 2.44737 22.0359 23.2881 -28.6394 -1.19271e-015 6.36111e-015 2.38542e-015 -101.257 0.849569 -52.2657 -78.0268 40.0807 -35.8377 14.1501 25.1488 -12.803 48.5341 3.72711 -19.2352 107.496 -57.8093 138.376 17.1004 26.0975 42.5046 16.0037 29.4233 4.69207 109.825 32.6855 -91.151 3.04302 0.718638 71.42 7.53363 -0.296208 8.44609 4.17973e-010 1.55999e-007 -4.85535e-009 
3.25552 106.898 -79.2828 114.907 71.5987 138.049 -56.424 -13.987 -9.50614 9.23878 21.5789 -65.6352 46.6263 9.34592 -21.0218 0.0462048 0.000533403 0.662642 30.1334 39.4199 -20.8193 2.07658 4.92458 2.45948 19.992 21.4892 -28.6044 -4.57205e-015 0 2.78299e-015 -99.7288 0.385152 -50.4622 -76.9583 39.9648 -36.9688 14.0463 25.5752 -12.2677 50.5805 5.43514 -20.1327 108.346 -57.8726 139.62 16.4011 25.4845 43.5233 16.2848 29.6714 5.20477 113.695 30.6044 -92.5045 1.93881 -2.13548 69.7423 6.8157 -0.0652458 8.00195 4.17973e-010 1.55999e-007 -4.85536e-009 
